<?xml version="1.0" encoding="UTF-8"?>
<svg width="80px" height="30px" viewBox="0 0 80 30" version="1.1" xmlns="http://www.w3.org/2000/svg" xmlns:xlink="http://www.w3.org/1999/xlink">
    <!-- Generator: Sketch 43.2 (39069) - http://www.bohemiancoding.com/sketch -->
    <title>LOGO</title>
    <desc>Created with Sketch.</desc>
    <defs></defs>
    <g id="1.0-Marketing-Home" stroke="none" stroke-width="1" fill="none" fill-rule="evenodd">
        <g id="Artboard" transform="translate(-271.000000, -84.000000)">
            <g id="LOGO" transform="translate(271.000000, 84.000000)">
                <path d="M77.8521127,2.46232394 C76.6262912,1.02444461 74.8517969,0.169021766 72.9633803,0.105633803 L66.3380282,0.105633803 C66.1630084,0.105633803 66.0211268,0.247515396 66.0211268,0.422535211 L66.0211268,29.5774648 C66.0211268,29.7524846 66.1630084,29.8943662 66.3380282,29.8943662 L73.056338,29.8943662 C74.855884,29.8098236 76.5459313,29.0055285 77.7464789,27.6623239 C78.8370621,26.4475442 79.4391573,24.8719363 79.4366197,23.2394366 L79.4366197,6.76056338 C79.4381923,5.18465766 78.8761901,3.66013309 77.8521127,2.46232394 L77.8521127,2.46232394 Z M74.3661972,23.028169 C74.3661972,24.019948 73.5622015,24.8239437 72.5704225,24.8239437 L71.4084507,24.8239437 C71.2334309,24.8239437 71.0915493,24.6820621 71.0915493,24.5070423 L71.0915493,5.49295775 C71.0915493,5.31793793 71.2334309,5.17605634 71.4084507,5.17605634 L72.5704225,5.17605634 C73.5622015,5.17605634 74.3661972,5.98005203 74.3661972,6.97183099 L74.3661972,23.028169 L74.3661972,23.028169 Z" id="Shape" fill="#B8B8B8"></path>
                <path d="M64.1197183,0.105633803 L60.4975352,0.105633803 C60.339434,0.105633803 60.2112676,0.233800175 60.2112676,0.391901408 L60.2112676,7.6056338 C60.2112676,7.78065362 60.3531492,7.92253521 60.528169,7.92253521 L62.1602113,7.92253521 C62.2096232,7.92097177 62.2535106,7.95388733 62.2658451,8.00176056 C62.3074814,8.17259526 62.3287561,8.3477568 62.3292254,8.52359155 C62.3183472,9.65178386 61.501842,10.6105994 60.3897887,10.8010563 C60.2868873,10.818261 60.2119519,10.9080039 60.2133803,11.0123239 L60.2133803,12.0422535 C60.2131103,12.1019425 60.2381021,12.1589603 60.2821776,12.1992119 C60.3262531,12.2394635 60.3852988,12.2591922 60.4447183,12.2535211 C62.6408451,12.0549296 64.4366197,10.190493 64.4366197,7.92253521 L64.4366197,0.422535211 C64.4366197,0.247515396 64.2947381,0.105633803 64.1197183,0.105633803 L64.1197183,0.105633803 Z" id="Shape" fill="#FD6721"></path>
                <path d="M58.1947183,12.4647887 L52.2887324,12.4647887 L52.2887324,5.49295775 C52.2887324,5.31793793 52.430614,5.17605634 52.6056338,5.17605634 L58.3098592,5.17605634 C58.484879,5.17605634 58.6267606,5.03417474 58.6267606,4.85915493 L58.6267606,0.422535211 C58.6267606,0.247515396 58.484879,0.105633803 58.3098592,0.105633803 L47.5352113,0.105633803 C47.3601915,0.105633803 47.2183099,0.247515396 47.2183099,0.422535211 L47.2183099,12.4647887 L37.9225352,12.4647887 L37.9225352,5.49295775 C37.9225352,5.31793793 38.0644168,5.17605634 38.2394366,5.17605634 L44.3661972,5.17605634 C44.541217,5.17605634 44.6830986,5.03417474 44.6830986,4.85915493 L44.6830986,0.422535211 C44.6830986,0.247515396 44.541217,0.105633803 44.3661972,0.105633803 L33.1690141,0.105633803 C32.9939943,0.105633803 32.8521127,0.247515396 32.8521127,0.422535211 L32.8521127,12.4647887 L31.2676056,12.4647887 C31.0925858,12.4647887 30.9507042,12.6066703 30.9507042,12.7816901 L30.9507042,14.8943662 C30.9507042,15.069386 31.0925858,15.2112676 31.2676056,15.2112676 L31.4788732,15.2112676 C31.6538931,15.2112676 31.7957746,15.3531492 31.7957746,15.528169 L31.7957746,17.6408451 C31.7957506,17.8138228 31.9344406,17.9548635 32.1073944,17.9577465 L32.8521127,17.9672535 L32.8521127,29.5774648 C32.8521127,29.7524846 32.9939943,29.8943662 33.1690141,29.8943662 L44.2605634,29.8943662 C44.4355832,29.8943662 44.5774648,29.7524846 44.5774648,29.5774648 L44.5774648,25.1408451 C44.5774648,24.9658253 44.4355832,24.8239437 44.2605634,24.8239437 L38.2394366,24.8239437 C38.0644168,24.8239437 37.9225352,24.6820621 37.9225352,24.5070423 L37.9225352,17.9577465 C40.8580986,17.9165493 44.3503521,17.8014085 47.2183099,17.5172535 L47.2183099,29.5774648 C47.2183099,29.7524846 47.3601915,29.8943662 47.5352113,29.8943662 L51.971831,29.8943662 C52.1468508,29.8943662 52.2887324,29.7524846 52.2887324,29.5774648 L52.2887324,16.5971831 C55.5633803,15.6169014 57.5334507,14.1179577 58.490493,13.2169014 C58.6189689,13.0945088 58.6605152,12.9064954 58.5955754,12.7413626 C58.5306355,12.5762298 58.372149,12.466881 58.1947183,12.4647887 L58.1947183,12.4647887 Z" id="Shape" fill="#B8B8B8"></path>
                <path d="M29.3661972,0.105633803 L24.9295775,0.105633803 C24.7545576,0.105633803 24.6126761,0.247515396 24.6126761,0.422535211 L24.6126761,12.4647887 L20.8098592,12.4647887 L20.8098592,0.422535211 C20.8098592,0.247515396 20.6679776,0.105633803 20.4929577,0.105633803 L16.056338,0.105633803 C15.8813182,0.105633803 15.7394366,0.247515396 15.7394366,0.422535211 L15.7394366,12.4647887 L13.3098592,12.4647887 C11.9097006,12.4647887 10.7746479,13.5998415 10.7746479,15 C10.7746479,16.4001585 11.9097006,17.5352113 13.3098592,17.5352113 L15.7394366,17.5352113 L15.7394366,29.5774648 C15.7394366,29.7524846 15.8813182,29.8943662 16.056338,29.8943662 L20.4929577,29.8943662 C20.6679776,29.8943662 20.8098592,29.7524846 20.8098592,29.5774648 L20.8098592,17.5352113 L24.6126761,17.5352113 L24.6126761,29.5774648 C24.6126761,29.7524846 24.7545576,29.8943662 24.9295775,29.8943662 L29.3661972,29.8943662 C29.541217,29.8943662 29.6830986,29.7524846 29.6830986,29.5774648 L29.6830986,0.422535211 C29.6830986,0.247515396 29.541217,0.105633803 29.3661972,0.105633803 L29.3661972,0.105633803 Z M18.2746479,16.056338 C17.6912485,16.056338 17.2183099,15.5833994 17.2183099,15 C17.2183099,14.4166006 17.6912485,13.943662 18.2746479,13.943662 C18.8580473,13.943662 19.3309859,14.4166006 19.3309859,15 C19.3309859,15.5833994 18.8580473,16.056338 18.2746479,16.056338 L18.2746479,16.056338 Z M27.2535211,16.056338 C26.6701217,16.056338 26.1971831,15.5833994 26.1971831,15 C26.1971831,14.4166006 26.6701217,13.943662 27.2535211,13.943662 C27.8369205,13.943662 28.3098592,14.4166006 28.3098592,15 C28.3098592,15.5833994 27.8369205,16.056338 27.2535211,16.056338 L27.2535211,16.056338 Z" id="Shape" fill="#B8B8B8"></path>
                <path d="M8.23943662,10.3426056 L8.23943662,7.21584507 C8.2486279,6.35898242 7.58704862,5.64408736 6.73204225,5.58697183 C6.29861049,5.56585282 5.87548384,5.72342089 5.56143708,6.02289333 C5.24739032,6.32236577 5.06990833,6.7375332 5.07042254,7.17147887 L5.07042254,22.9848592 C5.06179545,23.8413158 5.72322183,24.5555822 6.5778169,24.6126761 C7.01124867,24.6337951 7.43437531,24.476227 7.74842207,24.1767546 C8.06246884,23.8772821 8.23995083,23.4621147 8.23943662,23.028169 L8.23943662,20.0704225 C8.23943662,19.8954027 8.38131821,19.7535211 8.55633803,19.7535211 L12.9929577,19.7535211 C13.1679776,19.7535211 13.3098592,19.8954027 13.3098592,20.0704225 L13.3098592,23.2394366 C13.3123462,25.0219269 12.598755,26.7307159 11.3293377,27.9820582 C10.0599204,29.2334005 8.34107418,29.9224141 6.55880282,29.8943662 C2.90492958,29.8426056 -1.77635684e-15,26.7950704 -1.77635684e-15,23.1338028 L-1.77635684e-15,6.74788732 C5.47679638e-08,3.07247125 2.9795135,0.0929578456 6.65492958,0.0929578456 C10.3303457,0.0929578456 13.3098591,3.07247125 13.3098592,6.74788732 L13.3098592,10.3394366 C13.3098592,10.5144564 13.1679776,10.656338 12.9929577,10.656338 L8.55633803,10.656338 C8.38254836,10.6563467 8.24117452,10.5163866 8.23943662,10.3426056 L8.23943662,10.3426056 Z" id="Shape" fill="#B8B8B8"></path>
            </g>
        </g>
    </g>
</svg>